<?xml version="1.0" encoding="UTF-8"?>
<svg xmlns="http://www.w3.org/2000/svg" version="1.1" viewBox="0 0 507.3 507.3">
  <defs>
    <style>
      .cls-1 {
        fill: none;
      }

      .cls-2 {
        font-family: Arial-BoldMT, Arial;
        font-size: 155.8px;
        font-weight: 700;
      }

      .cls-2, .cls-3 {
        isolation: isolate;
      }

      .cls-2, .cls-4 {
        fill: #ffca2c;
      }
    </style>
  </defs>
  <!-- Generator: Adobe Illustrator 28.7.1, SVG Export Plug-In . SVG Version: 1.2.0 Build 142)  -->
  <g>
    <g id="Layer_1">
      <g id="Layer_1-2" data-name="Layer_1">
        <circle class="cls-1" cx="253.7" cy="253.7" r="253.6"/>
        <g>
          <g class="cls-3">
            <g class="cls-3">
              <text class="cls-2" transform="translate(324.4 303.5)"><tspan x="0" y="0">te</tspan></text>
            </g>
          </g>
          <g>
            <path class="cls-4" d="M229.2,135.8c30,0,57.2,11.4,77.9,30.1l28.2-33.5c-21.1-18.8-47.3-32-76.1-37.5-.2,0-.4,0-.6,0-2.2-.4-4.4-.8-6.6-1.1-.5,0-1,0-1.5-.2-2-.3-3.9-.5-5.9-.7-.9,0-1.7,0-2.6-.2-1.7,0-3.3-.3-5-.3s-3.9,0-5.8-.2h-4.8v43.8c.9,0,1.8-.1,2.7-.1h.1Z"/>
            <path class="cls-4" d="M246.7,411.1h.4c2.8-.3,5.5-.7,8.2-1.1h0c36.8-6,69.3-24.6,93.1-51.2l-33.5-28.3c-21.3,23.2-51.7,37.9-85.7,37.9-63.1,0-114.3-50.3-116.1-112.9h-.3v-113c-1.1,1.2-2.2,2.3-3.2,3.5-.6.6-1.2,1.3-1.7,2-1.1,1.3-2.2,2.5-3.2,3.8-.5.6-1,1.3-1.6,2-1,1.3-2.1,2.7-3.1,4-.5.7-.9,1.3-1.4,2-1,1.4-2,2.8-2.9,4.2-.4.7-.9,1.4-1.3,2.1-.9,1.4-1.8,2.9-2.7,4.3-.4.7-.8,1.5-1.3,2.2-.8,1.5-1.7,2.9-2.5,4.4-.4.8-.8,1.5-1.2,2.3-.8,1.5-1.5,3-2.2,4.5-.4.8-.8,1.7-1.1,2.5-.7,1.5-1.3,3-2,4.5-.4.9-.7,1.8-1.1,2.7-.6,1.5-1.2,2.9-1.7,4.4-.3,1-.7,1.9-1,2.9-.5,1.5-1,2.9-1.4,4.4-.3,1.1-.6,2.1-.9,3.2-.4,1.4-.8,2.8-1.2,4.2-.3,1.2-.6,2.4-.8,3.5-.3,1.4-.6,2.7-.9,4.1-.3,1.3-.5,2.6-.7,3.9-.2,1.3-.5,2.6-.7,3.8-.2,1.4-.4,2.9-.6,4.4,0,1.2-.3,2.3-.4,3.5-.2,1.7-.3,3.5-.4,5.2,0,.9-.2,1.9-.2,2.8,0,2.7-.2,5.4-.2,8.1,0,88.3,71.7,159.9,160.1,160,2.9,0,5.8,0,8.7-.2h.3c2.8-.2,5.6-.4,8.4-.7h0Z"/>
            <path class="cls-4" d="M229.2,181.5c-14.3,0-27.7,3.9-39.3,10.6v-95c-14.1,3.6-27.4,9-39.7,16v149.8h.1c1.3,42.5,36.1,76.6,78.9,76.6s79-35.4,79-79-35.4-79-79-79h0ZM229.2,301.5c-22.3,0-40.3-18.1-40.3-40.3s18.1-40.3,40.3-40.3,40.3,18.1,40.3,40.3-18.1,40.3-40.3,40.3h0Z"/>
          </g>
        </g>
      </g>
    </g>
  </g>
</svg>