<?xml version="1.0" encoding="UTF-8"?>
<svg id="Layer_1" data-name="Layer 1" xmlns="http://www.w3.org/2000/svg" viewBox="0 0 507.32 507.32">
  <defs>
    <style>
      .cls-1 {
        fill: none;
        stroke: #dc6627;
        stroke-miterlimit: 10;
        stroke-width: .05px;
      }

      .cls-2 {
        font-family: Arial-BoldMT, Arial;
        font-size: 155.81px;
        font-weight: 700;
      }

      .cls-2, .cls-3 {
        fill: #dc6627;
      }

      .cls-3 {
        stroke-width: 0px;
      }
    </style>
  </defs>
  <circle class="cls-1" cx="253.66" cy="253.66" r="253.63"/>
  <g>
    <text class="cls-2" transform="translate(324.43 303.48)"><tspan x="0" y="0">te</tspan></text>
    <g>
      <path class="cls-3" d="M229.21,135.82c29.99,0,57.24,11.45,77.86,30.1l28.25-33.51c-21.14-18.75-47.27-32.01-76.15-37.49-.2-.04-.41-.07-.61-.11-2.17-.4-4.36-.77-6.56-1.08-.49-.07-.99-.12-1.49-.19-1.96-.26-3.92-.5-5.9-.69-.86-.08-1.73-.13-2.6-.2-1.66-.13-3.31-.27-4.98-.35-1.92-.09-3.85-.12-5.78-.15-.66,0-1.31-.05-1.97-.05-.93,0-1.85.05-2.78.07v43.78c.91-.02,1.79-.14,2.7-.14Z"/>
      <path class="cls-3" d="M246.67,411.13c.12-.01.24-.03.35-.05,2.77-.31,5.52-.68,8.25-1.13.02,0,.04,0,.06,0,36.76-6.04,69.29-24.62,93.08-51.19l-33.53-28.26c-21.26,23.21-51.72,37.86-85.67,37.86-63.08,0-114.3-50.26-116.1-112.91h-.28v-113.03c-1.1,1.16-2.19,2.34-3.25,3.54-.58.65-1.15,1.32-1.71,1.98-1.08,1.26-2.15,2.53-3.2,3.82-.53.65-1.04,1.32-1.56,1.98-1.04,1.33-2.07,2.67-3.07,4.04-.48.66-.95,1.33-1.42,2-.99,1.39-1.97,2.79-2.91,4.22-.45.68-.88,1.38-1.32,2.06-.92,1.44-1.83,2.88-2.7,4.34-.43.72-.84,1.46-1.26,2.18-.84,1.46-1.68,2.93-2.47,4.42-.41.76-.79,1.54-1.19,2.31-.76,1.48-1.52,2.97-2.23,4.48-.39.83-.75,1.67-1.13,2.5-.67,1.48-1.34,2.96-1.97,4.47-.37.89-.71,1.81-1.07,2.71-.58,1.47-1.17,2.95-1.71,4.44-.35.96-.66,1.94-.99,2.91-.49,1.46-1,2.91-1.45,4.39-.33,1.06-.61,2.14-.91,3.21-.4,1.41-.82,2.82-1.18,4.25-.3,1.17-.55,2.35-.82,3.53-.31,1.36-.64,2.71-.92,4.09-.26,1.3-.47,2.61-.7,3.92-.23,1.28-.48,2.55-.67,3.84-.22,1.45-.38,2.91-.56,4.37-.14,1.18-.32,2.34-.44,3.53-.17,1.72-.28,3.47-.4,5.21-.06.94-.16,1.86-.21,2.8-.14,2.69-.21,5.41-.21,8.13,0,88.33,71.65,159.94,160.06,159.98,2.93,0,5.83-.08,8.72-.24.09,0,.18-.02.27-.02,2.82-.16,5.62-.38,8.4-.69Z"/>
      <path class="cls-3" d="M229.21,181.46c-14.34,0-27.74,3.88-39.33,10.55v-94.99c-14.06,3.56-27.37,9.01-39.67,16.02v149.79h.12c1.27,42.52,36.05,76.63,78.88,76.63s79-35.37,79-79-35.37-79-79-79ZM229.21,301.46c-22.27,0-40.33-18.06-40.33-40.33s18.06-40.33,40.33-40.33,40.33,18.06,40.33,40.33-18.06,40.33-40.33,40.33Z"/>
    </g>
  </g>
</svg>